<?xml version="1.0" encoding="utf-8"?>
<!-- Generator: Adobe Illustrator 18.0.0, SVG Export Plug-In . SVG Version: 6.00 Build 0)  -->
<!DOCTYPE svg PUBLIC "-//W3C//DTD SVG 1.1//EN" "http://www.w3.org/Graphics/SVG/1.1/DTD/svg11.dtd">
<svg version="1.1" xmlns="http://www.w3.org/2000/svg" xmlns:xlink="http://www.w3.org/1999/xlink" x="0px" y="0px"
	 viewBox="0 0 141.7 141.7" enable-background="new 0 0 141.7 141.7" xml:space="preserve">
<g id="Layer_1">
	<g>
		<path fill="#01A158" d="M72.7,79l30.1-17.3c1.4-0.8,3.2-0.8,4.6,0L137.4,79c1.4,0.8,2.3,2.3,2.3,4v34.7c0,1.6-0.9,3.1-2.3,4
			L107.3,139c-1.4,0.8-3.2,0.8-4.6,0l-30.1-17.4c-1.4-0.8-2.3-2.3-2.3-4V83C70.4,81.4,71.3,79.8,72.7,79z"/>
		<path fill="#E62339" d="M3.5,79l30.1-17.3c1.4-0.8,3.2-0.8,4.6,0L68.1,79c1.4,0.8,2.3,2.3,2.3,4v34.7c0,1.6-0.9,3.1-2.3,4
			L38.1,139c-1.4,0.8-3.2,0.8-4.6,0L3.5,121.6c-1.4-0.8-2.3-2.3-2.3-4V83C1.2,81.4,2.1,79.8,3.5,79z"/>
		<path fill="#23398D" d="M38.1,19.1L68.1,1.7c1.4-0.8,3.2-0.8,4.6,0l30.1,17.3c1.4,0.8,2.3,2.3,2.3,4v34.7c0,1.6-0.9,3.1-2.3,4
			L72.7,79c-1.4,0.8-3.2,0.8-4.6,0L38.1,61.7c-1.4-0.8-2.3-2.3-2.3-4V23C35.8,21.4,36.7,19.9,38.1,19.1z"/>
		<path fill="#231F20" d="M38.1,59l30.1-17.3c1.4-0.8,3.2-0.8,4.6,0L102.8,59c1.4,0.8,2.3,2.3,2.3,4v34.7c0,1.6-0.9,3.1-2.3,4
			L72.7,119c-1.4,0.8-3.2,0.8-4.6,0l-30.1-17.4c-1.4-0.8-2.3-2.3-2.3-4V63C35.8,61.4,36.7,59.9,38.1,59z"/>
		<g>
			<path fill="#FFFFFF" d="M51.9,67.2v3.3c0,0.2,0.2,0.4,0.4,0.4h6.4c0.2,0,0.4,0.2,0.4,0.4v2.3c0,0.2-0.2,0.4-0.4,0.4h-6.4
				c-0.2,0-0.4,0.2-0.4,0.4v5.7c0,0.2-0.2,0.4-0.4,0.4h-2.7c-0.2,0-0.4-0.2-0.4-0.4v-16c0-0.2,0.2-0.4,0.4-0.4H60
				c0.2,0,0.4,0.2,0.4,0.4v2.4c0,0.2-0.2,0.4-0.4,0.4h-7.7C52.1,66.8,51.9,67,51.9,67.2z"/>
			<path fill="#FFFFFF" d="M76.9,76.2v3.9c0,0.2-0.2,0.4-0.4,0.4h-2.6c-0.2,0-0.4-0.2-0.4-0.4v-3.4l-0.3-0.8h-6.4l-0.3,0.8v3.4
				c0,0.2-0.2,0.4-0.4,0.4h-2.7c-0.2,0-0.4-0.2-0.4-0.4v-3.9c0-0.1,0-0.1,0-0.2l5.1-12.1c0.1-0.1,0.2-0.2,0.4-0.2h3
				c0.2,0,0.3,0.1,0.4,0.2L76.9,76C76.9,76.1,76.9,76.1,76.9,76.2z M68.3,72.8h3.2c0.3,0,0.5-0.3,0.4-0.5L70,67.6h-0.1L68,72.3
				C67.9,72.5,68.1,72.8,68.3,72.8z"/>
			<path fill="#FFFFFF" d="M80,64.1c0-0.2,0.2-0.4,0.4-0.4h7.3c2.8,0,4.5,1.2,4.5,3.9V69c0,1-0.4,2-1.2,2.6c-0.3,0.2-0.3,0.5,0,0.7
				c0.9,0.6,1.2,1.6,1.2,2.6v1.8c0,2.7-1.6,3.9-4.5,3.9h-7.3c-0.2,0-0.4-0.2-0.4-0.4V64.1z M87.2,70.4c1.1,0,1.5-0.5,1.5-1.4v-0.8
				c0-0.9-0.4-1.3-1.5-1.3h-3.4c-0.2,0-0.4,0.2-0.4,0.4V70c0,0.2,0.2,0.4,0.4,0.4H87.2z M87.2,77.2c1.1,0,1.5-0.4,1.5-1.3v-1.1
				c0-0.9-0.4-1.3-1.5-1.3h-3.4c-0.2,0-0.4,0.2-0.4,0.4v3c0,0.2,0.2,0.4,0.4,0.4H87.2z"/>
		</g>
		<g>
			<path fill="#FFFFFF" d="M56.9,94.7c0,1.7-0.7,2.4-2.7,2.4h-3.3c-1.9,0-2.7-0.7-2.7-2.4v-7.6c0-1.7,0.7-2.4,2.7-2.4h3.3
				c1.9,0,2.7,0.7,2.7,2.4v0.5L55.7,88v-0.7c0-1.1-0.3-1.6-1.7-1.6h-3c-1.4,0-1.7,0.5-1.7,1.6v7.2c0,1.1,0.3,1.6,1.7,1.6h3
				c1.4,0,1.7-0.5,1.7-1.6v-0.7l1.1,0.3V94.7z"/>
			<path fill="#FFFFFF" d="M60.1,96.1h3.6V85.7h-3.4v-1h8v1h-3.4v10.4h3.6v1h-8.4V96.1z"/>
			<path fill="#FFFFFF" d="M76.8,85.7v11.4h-1.1V85.7h-4.4v-1h10v1H76.8z"/>
			<path fill="#FFFFFF" d="M88.6,91.6v5.5h-1.1v-5.5l-4-3.7v-3.3h1.1v2.8l3.5,3.2l3.5-3.2v-2.8h1.1v3.3L88.6,91.6z"/>
		</g>
	</g>
</g>
<g id="Layer_2">
</g>
</svg>
